<svg id="visual" viewBox="0 0 1800 450" width="1800" height="450" xmlns="http://www.w3.org/2000/svg" xmlns:xlink="http://www.w3.org/1999/xlink" version="1.1"><rect x="0" y="0" width="1800" height="450" fill="#738462"></rect><path d="M0 162L75 153.8C150 145.7 300 129.3 450 133.2C600 137 750 161 900 161.7C1050 162.3 1200 139.7 1350 132.7C1500 125.7 1650 134.3 1725 138.7L1800 143L1800 451L1725 451C1650 451 1500 451 1350 451C1200 451 1050 451 900 451C750 451 600 451 450 451C300 451 150 451 75 451L0 451Z" fill="#660a23"></path><path d="M0 228L75 221.8C150 215.7 300 203.3 450 205.5C600 207.7 750 224.3 900 235C1050 245.7 1200 250.3 1350 242.2C1500 234 1650 213 1725 202.5L1800 192L1800 451L1725 451C1650 451 1500 451 1350 451C1200 451 1050 451 900 451C750 451 600 451 450 451C300 451 150 451 75 451L0 451Z" fill="#78293b"></path><path d="M0 316L75 309.2C150 302.3 300 288.7 450 281C600 273.3 750 271.7 900 273.7C1050 275.7 1200 281.3 1350 283.5C1500 285.7 1650 284.3 1725 283.7L1800 283L1800 451L1725 451C1650 451 1500 451 1350 451C1200 451 1050 451 900 451C750 451 600 451 450 451C300 451 150 451 75 451L0 451Z" fill="#8a4255"></path><path d="M0 361L75 360.3C150 359.7 300 358.3 450 355.2C600 352 750 347 900 347C1050 347 1200 352 1350 357.7C1500 363.3 1650 369.7 1725 372.8L1800 376L1800 451L1725 451C1650 451 1500 451 1350 451C1200 451 1050 451 900 451C750 451 600 451 450 451C300 451 150 451 75 451L0 451Z" fill="#9a5b6e"></path></svg>