<svg id="visual" viewBox="0 0 900 450" width="900" height="450" xmlns="http://www.w3.org/2000/svg" xmlns:xlink="http://www.w3.org/1999/xlink" version="1.1"><rect x="0" y="0" width="900" height="450" fill="#c0ae88"></rect><path d="M0 109L37.5 124.8C75 140.7 150 172.3 225 180.3C300 188.3 375 172.7 450 157.8C525 143 600 129 675 126C750 123 825 131 862.5 135L900 139L900 451L862.5 451C825 451 750 451 675 451C600 451 525 451 450 451C375 451 300 451 225 451C150 451 75 451 37.5 451L0 451Z" fill="#660a23"></path><path d="M0 195L37.5 203.5C75 212 150 229 225 230.3C300 231.7 375 217.3 450 217.5C525 217.7 600 232.3 675 235.8C750 239.3 825 231.7 862.5 227.8L900 224L900 451L862.5 451C825 451 750 451 675 451C600 451 525 451 450 451C375 451 300 451 225 451C150 451 75 451 37.5 451L0 451Z" fill="#78293b"></path><path d="M0 296L37.5 295.2C75 294.3 150 292.7 225 296C300 299.3 375 307.7 450 308.5C525 309.3 600 302.7 675 297.2C750 291.7 825 287.3 862.5 285.2L900 283L900 451L862.5 451C825 451 750 451 675 451C600 451 525 451 450 451C375 451 300 451 225 451C150 451 75 451 37.5 451L0 451Z" fill="#8a4255"></path><path d="M0 356L37.5 355.3C75 354.7 150 353.3 225 354.2C300 355 375 358 450 362C525 366 600 371 675 367.7C750 364.3 825 352.7 862.5 346.8L900 341L900 451L862.5 451C825 451 750 451 675 451C600 451 525 451 450 451C375 451 300 451 225 451C150 451 75 451 37.5 451L0 451Z" fill="#9a5b6e"></path></svg>